<?xml version="1.0" encoding="utf-8"?>
<!-- Generator: Adobe Illustrator 16.0.0, SVG Export Plug-In . SVG Version: 6.00 Build 0)  -->
<!DOCTYPE svg PUBLIC "-//W3C//DTD SVG 1.1//EN" "http://www.w3.org/Graphics/SVG/1.1/DTD/svg11.dtd">
<svg version="1.1" id="Layer_1" xmlns="http://www.w3.org/2000/svg" xmlns:xlink="http://www.w3.org/1999/xlink" x="0px" y="0px"
	 width="100px" height="100px" viewBox="0 0 100 100" enable-background="new 0 0 100 100" xml:space="preserve">
<g id="Facebook_Messenger_2_">
	<g>
		<path fill="#0084FF" d="M50,0C22.556,0,0.309,20.728,0.309,46.296c0,14.57,7.226,27.565,18.519,36.051V100l16.919-9.344
			c4.516,1.257,9.299,1.937,14.254,1.937c27.443,0,49.691-20.728,49.691-46.296S77.443,0,50,0z M54.938,62.345L42.284,48.766
			L17.592,62.345l27.161-29.011l12.962,13.58l24.383-13.58L54.938,62.345z"/>
	</g>
</g>
<g id="Facebook_Messenger_1_">
	<g>
		<path fill="#FFFFFF" d="M54.938,62.345L42.284,48.766L17.592,62.345l27.161-29.011l12.962,13.58l24.383-13.58L54.938,62.345z"/>
	</g>
</g>
</svg>
